<svg id="building" xmlns="http://www.w3.org/2000/svg" xmlns:xlink="http://www.w3.org/1999/xlink" version="1.1" viewBox="0 0 256 256" xml:space="preserve">
<g style="stroke: none; stroke-width: 0; stroke-dasharray: none; stroke-linecap: butt; stroke-linejoin: miter; stroke-miterlimit: 10; fill: none; fill-rule: nonzero; opacity: 1;" transform="translate(1.4065934065934016 1.4065934065934016) scale(2.81 2.81)" >
	<path d="M 80.008 79.956 h -3.943 v -7.045 c 0 -0.553 -0.447 -1 -1 -1 h -4.688 V 10.044 h 4.688 c 0.553 0 1 -0.448 1 -1 V 1 c 0 -0.552 -0.447 -1 -1 -1 H 14.936 c -0.552 0 -1 0.448 -1 1 v 8.044 c 0 0.552 0.448 1 1 1 h 4.688 v 61.867 h -4.688 c -0.552 0 -1 0.447 -1 1 v 7.045 H 9.992 c -0.552 0 -1 0.447 -1 1 V 89 c 0 0.553 0.448 1 1 1 h 70.016 c 0.553 0 1 -0.447 1 -1 v -8.044 C 81.008 80.403 80.561 79.956 80.008 79.956 z M 27.103 21.504 c 0 -4.113 3.346 -7.46 7.459 -7.46 s 7.46 3.347 7.46 7.46 v 6.459 c 0 0.552 -0.448 1 -1 1 H 28.103 c -0.552 0 -1 -0.448 -1 -1 V 21.504 z M 27.103 47.737 v -6.459 c 0 -4.113 3.346 -7.46 7.459 -7.46 s 7.46 3.347 7.46 7.46 v 6.459 c 0 0.553 -0.448 1 -1 1 H 28.103 C 27.55 48.737 27.103 48.29 27.103 47.737 z M 51.557 71.911 H 38.443 v -9.576 c 0 -3.615 2.941 -6.557 6.557 -6.557 s 6.557 2.941 6.557 6.557 V 71.911 z M 62.897 47.737 c 0 0.553 -0.447 1 -1 1 h -12.92 c -0.553 0 -1 -0.447 -1 -1 v -6.459 c 0 -4.113 3.347 -7.46 7.46 -7.46 s 7.46 3.347 7.46 7.46 V 47.737 z M 62.897 27.964 c 0 0.552 -0.447 1 -1 1 h -12.92 c -0.553 0 -1 -0.448 -1 -1 v -6.459 c 0 -4.113 3.347 -7.46 7.46 -7.46 s 7.46 3.347 7.46 7.46 V 27.964 z" style="stroke: none; stroke-width: 1; stroke-dasharray: none; stroke-linecap: butt; stroke-linejoin: miter; stroke-miterlimit: 10; fill: rgb(255,255,255); fill-rule: nonzero; opacity: 1;" transform=" matrix(1 0 0 1 0 0) " stroke-linecap="round" />
</g>
</svg>