<svg id="logo" viewBox="0 0 307 64" fill="none" xmlns="http://www.w3.org/2000/svg">
<path d="M51.1173 24.2812L52.0194 26.9727L53.0943 27.1265L52.0578 24.0505L47.0098 8.93965L46.6451 9.2857L46.2612 9.70865L51.1173 24.2812Z" fill="#D0AB50"/>
<path d="M51.7316 14.3611L53.459 19.648V16.7258L51.7316 14.3611Z" fill="#D0AB50"/>
<path d="M51.0982 26.8573L49.9657 23.4353L45.6087 10.4392L44.8601 11.2659L49.8889 26.6843L51.0982 26.8573Z" fill="#D0AB50"/>
<path d="M47.9695 9.17033L52.864 23.7813L53.459 25.5693V22.3395L50.1384 12.1694L47.9695 9.17033Z" fill="#D0AB50"/>
<path d="M44.2267 11.9964L43.7085 12.5732L47.8352 26.4152L48.9677 26.569L44.2267 11.9964Z" fill="#D0AB50"/>
<path d="M24.8407 31.7405L23.6891 31.0099L21.8081 33.7206L21.5969 34.6242L22.2111 35.4893L24.8407 31.7405Z" fill="#D0AB50"/>
<path d="M22.5759 30.3178L22.288 31.5675L22.9981 30.5678L22.5759 30.3178Z" fill="#D0AB50"/>
<path d="M30.906 35.5278L28.6411 39.565L30.4453 40.1418L31.9233 36.1622L30.906 35.5278Z" fill="#D0AB50"/>
<path d="M27.2784 33.2592L24.2457 38.1424L25.7045 38.6038L28.3341 33.9129L27.2784 33.2592Z" fill="#D0AB50"/>
<path d="M25.5509 32.1827L22.7294 36.2007L23.6699 37.4888L26.5682 32.8171L25.5509 32.1827Z" fill="#D0AB50"/>
<path d="M29.0442 34.3551L26.5106 38.873L27.835 39.2959L30.1959 35.0856L29.0442 34.3551Z" fill="#D0AB50"/>
<path d="M32.6527 36.6236L31.2323 40.411L33.2861 41.0838L32.691 36.6429L32.6527 36.6236Z" fill="#D0AB50"/>
<path d="M26.6833 17.7447L25.9923 20.0709L26.5105 28.8375L27.3743 29.3758L26.6833 17.7447Z" fill="#D0AB50"/>
<path d="M30.0231 31.0292L28.9866 13.8228H28.1613L29.1593 30.4909L30.0231 31.0292Z" fill="#D0AB50"/>
<path d="M32.6718 32.7017L31.5394 13.8228H30.6948L31.8081 32.1442L32.6718 32.7017Z" fill="#D0AB50"/>
<path d="M35.2247 33.0478L34.073 13.8228H33.2477L34.4185 33.5476L35.2247 33.0478Z" fill="#D0AB50"/>
<path d="M38.3341 13.8228L39.3322 30.4716L40.1383 29.9718L39.1594 13.8228H38.3341Z" fill="#D0AB50"/>
<path d="M35.7812 13.8228L36.8753 32.0096L37.6815 31.5098L36.6258 13.8228H35.7812Z" fill="#D0AB50"/>
<path d="M40.9445 14.9571L41.7698 28.9336L42.5759 28.4338L41.9809 18.456L40.9445 14.9571Z" fill="#D0AB50"/>
<path d="M44.6105 6.55575L43.4397 6.17125L41.3667 5.49838L40.0039 5.0562L38.0461 4.42178L36.6834 3.9796L35.3014 3.5182L25.5125 6.70955L25.8963 7.42088L26.2994 8.15142L26.8944 9.22803L27.2975 9.9778L27.5854 10.4969H29.8503H32.6142H35.9348H38.6795H41.098L42.0577 9.42028L43.1326 8.18988L44.4569 6.70955L44.6105 6.55575Z" fill="#D0AB50"/>
<path d="M22.0384 40.93L20.5988 38.9499L15.6084 60.7318H18.1036L22.0384 40.93Z" fill="#D0AB50"/>
<path d="M48.5837 40.93L47.3361 41.1607L51.3668 60.6741L53.3054 60.7125L48.718 40.7185L48.5837 40.93Z" fill="#D0AB50"/>
<path d="M63.9966 9.80476C65.9736 7.59388 66.2615 3.96036 66.7413 1.17274C66.7605 1.03816 66.7797 0.903585 66.7989 0.749785C66.8757 0.211485 66.2423 -0.153788 65.82 0.192262C65.129 0.730561 64.3421 1.15351 63.5359 1.49956C61.4822 2.38391 59.4092 2.53771 57.7393 4.44099C56.6069 5.72906 56.0311 7.38241 55.9927 9.09343C55.9927 9.13188 55.9927 9.18956 55.9927 9.22801C55.9927 9.80476 56.0119 10.4392 56.2038 10.9775C57.4322 10.1316 58.6414 9.24723 59.7931 8.28598C60.4265 7.76691 61.0215 7.22861 61.5973 6.65186C62.1731 6.07511 62.7298 5.47914 63.1328 4.76781C62.8449 5.53681 62.4035 6.24814 61.9428 6.94023C61.463 7.61311 60.9639 8.26676 60.4265 8.90118C59.486 10.0162 58.5071 11.0544 57.4706 12.0925C58.296 12.2656 59.2749 12.1887 60.1002 12.0349C61.5973 11.7465 62.9793 10.939 63.9966 9.80476Z" fill="#009B7F"/>
<path d="M14.2265 36.2776C14.1497 36.2776 14.0922 36.316 14.0346 36.3544C13.9194 36.4313 13.8426 36.5851 13.8618 36.7389C13.881 36.9504 14.073 37.1042 14.2841 37.1042C14.3033 37.1042 14.3225 37.1042 14.3417 37.1042L15.3782 36.9889L17.7006 36.7197L17.8926 35.8931V35.8546L15.5701 36.1237L14.2265 36.2776Z" fill="#009B7F"/>
<path d="M12.5566 44.5828C12.499 44.602 12.4222 44.6212 12.3838 44.6597C12.2687 44.7558 12.1919 44.8904 12.2111 45.0634C12.2495 45.2749 12.4222 45.4287 12.6141 45.4287C12.6333 45.4287 12.6525 45.4287 12.6717 45.4287L13.4203 45.3133L15.7812 44.9673L15.9731 44.1406V44.1021L13.6122 44.4482L12.5566 44.5828Z" fill="#009B7F"/>
<path d="M9.96538 54.176C9.90779 54.1952 9.83102 54.2145 9.79263 54.2529C9.67747 54.3491 9.60069 54.4836 9.61988 54.6566C9.65827 54.8681 9.83102 55.0219 10.023 55.0219C10.0422 55.0219 10.0613 55.0219 10.0805 55.0219L11.1938 54.8681L13.593 54.5221L13.785 53.6954V53.657L11.3857 54.003L9.96538 54.176Z" fill="#009B7F"/>
<path d="M68.7566 49.4275C68.4303 49.2544 68.0656 49.0045 67.8161 48.62C67.7969 48.6008 67.7969 48.5816 67.7777 48.5623C67.6625 48.3893 67.5282 48.2547 67.3938 48.1201C67.221 47.9471 67.0675 47.8126 66.9139 47.6972C66.6836 47.6588 66.4341 47.6203 66.2038 47.5626C66.1654 47.5626 66.127 47.5434 66.0886 47.5434C65.6855 47.4665 65.3016 47.3896 64.9562 47.3319C64.6874 47.2743 64.4379 47.2358 64.2268 47.1974C64.2076 47.1974 64.1692 47.1781 64.15 47.1781C64.0924 47.1589 64.0348 47.1589 63.9965 47.1397C63.8621 47.1205 63.7469 47.1012 63.6894 47.082C63.6318 47.0628 63.5934 47.0628 63.5934 47.0628V47.082C63.5934 47.1012 63.5934 47.1204 63.5742 47.1589C63.5742 47.1781 63.5742 47.2166 63.555 47.2358C63.555 47.2743 63.5358 47.3319 63.5358 47.3896C63.5358 47.4281 63.5166 47.4857 63.5166 47.5434C63.4782 47.7549 63.4398 48.0433 63.3822 48.3509C63.3055 48.9276 63.2095 49.6197 63.1903 50.2157C63.1903 50.2541 63.1903 50.2926 63.1903 50.3118C63.1903 50.4079 63.1903 50.5041 63.1903 50.6002C63.1903 50.6771 63.1903 50.7732 63.2095 50.8501L63.5934 51.0808C63.9965 51.3115 64.4187 51.5038 64.8026 51.6576C64.937 51.7152 65.0521 51.7537 65.1673 51.8114C66.1654 52.1958 66.9331 52.3689 66.9331 52.3689L65.1865 52.1958L64.8602 52.1574C64.937 52.9264 65.1097 54.5797 65.1097 54.5797C65.1865 54.599 65.2441 54.6182 65.3208 54.6374C65.3784 54.6567 65.436 54.6566 65.4936 54.6759C66.4533 54.8681 67.3362 54.772 67.912 54.6566C68.3343 54.5797 68.5838 54.4836 68.5838 54.4836C69.3132 52.2151 69.5435 50.6963 69.5627 49.7158C69.5627 49.7158 69.5243 49.7158 69.4476 49.6774C69.2556 49.6389 69.0253 49.562 68.7566 49.4275Z" fill="#009B7F"/>
<path d="M57.4897 41.9297C57.4705 41.9297 57.4513 41.9297 57.4321 41.9297L57.0866 41.872L57.4321 43.3716C57.4513 43.3716 57.4705 43.3716 57.4897 43.3716C57.5664 43.3716 57.6432 43.3908 57.7008 43.3908C57.9887 43.4293 58.2766 43.4677 58.5645 43.5062C58.8908 43.5446 59.1979 43.5831 59.4667 43.5831C59.6586 43.5831 59.8313 43.5638 60.0233 43.5446C60.3112 43.5254 60.5991 43.4677 60.9062 43.4293C60.5799 43.4677 60.292 43.5062 60.0041 43.5254L59.4858 41.2761C59.1787 41.0838 58.8716 40.8916 58.6029 40.6416C58.1231 40.2379 57.7392 39.7381 57.3169 39.2767C57.1058 39.046 56.8947 38.796 56.7027 38.5461C56.53 38.3539 56.338 38.1039 56.1653 37.8925L56.8755 40.9685L57.5281 41.0646C57.7584 41.103 57.9119 41.3145 57.8735 41.5452C57.8735 41.7951 57.7008 41.9297 57.4897 41.9297Z" fill="#483729"/>
<path d="M59.4284 49.4467C59.6587 49.4851 59.8122 49.6966 59.7738 49.9273C59.7355 50.1388 59.5627 50.2926 59.3708 50.2926C59.3516 50.2926 59.3324 50.2926 59.3132 50.2926L59.0445 50.2541L59.6011 52.5996C59.7546 52.5996 59.889 52.5804 60.0042 52.5611C60.0809 52.5419 60.1385 52.5034 60.1385 52.4458C60.1385 52.0805 60.1001 51.7152 60.0426 51.3692C60.0234 51.1962 60.0042 51.0424 59.985 50.9078C59.9658 50.7348 59.9466 50.5425 59.9466 50.3503C59.9274 49.9273 59.9274 49.5044 59.9274 49.1199C59.9274 49.0237 59.9274 48.9276 59.9274 48.8315C59.9466 47.9471 60.0234 46.9667 60.7527 46.6014L60.484 45.4479C60.0042 45.3518 59.5243 45.2172 59.0253 45.0634C58.8909 45.0249 58.7758 45.0057 58.6414 44.9673C58.699 45.0442 58.7182 45.1403 58.7182 45.2556C58.6798 45.4671 58.507 45.6209 58.3151 45.6209C58.2959 45.6209 58.2767 45.6209 58.2575 45.6209L57.9696 45.5825L58.8525 49.3698L59.4284 49.4467Z" fill="#483729"/>
<path d="M72.0004 60.8279L65.9735 60.7702C66.2806 60.501 66.5685 60.2319 67.0867 60.3088C67.6818 60.4049 68.1616 59.732 67.5474 59.1937C67.3363 59.0015 67.413 58.5593 67.4898 58.194C67.8161 57.4635 68.0656 56.7329 68.104 55.9255C68.1232 55.5025 67.9889 55.0604 67.8737 54.6374C67.2979 54.7528 66.4341 54.8489 65.4553 54.6566C65.6664 55.5987 65.8775 56.5215 65.9159 57.5019C65.8007 59.3668 65.6088 59.7513 65.0714 60.1358C64.7259 60.1165 64.5339 60.4626 64.5723 60.751H64.0541L62.0579 52.2151C62.0003 52.4073 61.9811 52.638 62.0003 52.9072C62.0195 53.0033 62.0195 53.1186 62.0387 53.2148C62.0963 53.5031 62.1347 53.83 62.0003 54.1568C61.866 54.5029 61.5397 54.6567 61.1942 54.6951C61.1366 54.6951 61.079 54.7143 61.0214 54.7143C60.983 54.7143 60.9447 54.7143 60.9063 54.7143C60.8103 54.7143 60.7335 54.7143 60.5992 54.6951C60.58 54.6951 60.58 54.6951 60.5608 54.6951C60.5224 54.6951 60.484 54.6759 60.4648 54.6759C60.388 54.8104 60.2537 54.8873 60.1193 54.8873L61.079 58.9631L61.175 58.9823C61.4053 59.0207 61.5589 59.2322 61.5205 59.4629C61.5013 59.6167 61.3861 59.732 61.2518 59.7897L61.4629 60.7125H60.7719H60.0425H58.7565H57.8928H56.6836L56.3189 59.1553L56.127 58.2902L55.1865 54.2145L54.9945 53.3493L54.1116 49.5236L53.9197 48.6585L53.0559 44.8711L52.864 44.006L52.2114 41.1992L52.0194 40.334L51.3285 37.3542L51.2901 37.1619L51.1365 36.489L51.7315 36.5659L52.1154 36.0469L52.0386 35.7585C51.9811 35.5278 52.1154 35.3163 52.3457 35.2586C52.4417 35.2394 52.5569 35.2586 52.6337 35.2971L53.7085 33.8168L53.6317 33.5284C53.5934 33.3361 53.7085 33.1439 53.9005 33.1054C53.9964 33.0862 54.1116 33.1054 54.1884 33.1631L54.8218 32.298L55.6471 35.8354C55.6663 35.8354 55.6855 35.8354 55.7047 35.8354C55.9926 35.8354 56.2805 35.9315 56.4341 36.0276C56.8371 36.2583 57.1251 36.4121 57.4514 36.6813C57.7585 36.9312 58.0272 37.1619 58.3535 37.3542C58.411 37.3926 58.507 37.4503 58.603 37.5272L56.7412 29.5488V15.6684L48.5837 4.32562L35.3207 0L22.0384 4.32562L13.8426 15.6299V28.8759L6.41448 60.7702L0.15723 60.8279C0.0804535 60.8279 0.00367763 60.8855 0.00367763 60.9624C-0.0155164 61.0586 0.0420651 61.1355 0.138035 61.1547H0.176423C0.790632 61.27 1.40484 61.3854 2.01905 61.5007C3.38182 61.7507 4.76379 61.9621 6.12657 62.1544C7.23982 62.3082 8.33388 62.462 9.44713 62.5773C10.2149 62.6735 10.9827 62.7504 11.7504 62.8273C12.8637 62.9426 13.9769 63.0387 15.0902 63.1349C15.2821 63.1541 15.474 63.1733 15.666 63.1925C16.1266 63.231 16.5681 63.2694 17.0288 63.2887C17.3935 63.3079 17.7773 63.3463 18.142 63.3656C24.1305 63.8077 30.1191 63.9808 36.1076 64C42.0578 64 48.0079 63.827 53.958 63.3848H53.9772C54.0156 63.3848 54.0348 63.3848 54.0732 63.3848C54.1692 63.3848 54.2843 63.3656 54.3803 63.3656C55.3592 63.2887 56.3381 63.2118 57.317 63.1349C58.8717 63.0003 60.4264 62.8465 61.9811 62.6927C62.8065 62.5966 63.651 62.5004 64.4764 62.3851C64.9754 62.3274 65.4936 62.2505 65.9927 62.1736C68.0081 61.8852 70.0042 61.5584 72.0196 61.1739H72.058C72.1348 61.1547 72.1924 61.097 72.1924 61.0201C72.154 60.9048 72.0772 60.8279 72.0004 60.8279ZM36.7602 60.6741H36.0692H33.4204L18.3148 60.7125H18.1036H16.0307L20.9251 39.3536L22.0384 40.8916L22.2495 40.9685L33.4204 44.602L35.3015 45.2172L36.741 44.7558L48.1806 41.0261L48.5645 40.8916L48.7565 40.8531L53.3054 60.6933H52.1154L36.7602 60.6741ZM35.3015 3.51817L36.6834 3.96035L38.0462 4.40252L40.004 5.03695L41.3668 5.47912L43.4397 6.152L44.6106 6.5365L44.457 6.70952L43.1326 8.18985L42.0386 9.42025L41.0789 10.4968H38.6604H35.9157H32.5951H29.8504H27.5855L27.2976 9.97777L26.8945 9.228L26.2995 8.15139L25.8964 7.40162L25.5125 6.70952L35.3015 3.51817ZM46.9906 8.88195L47.0098 8.93962L52.0578 24.0505L53.0751 27.1265L52.0003 26.9919L51.0981 24.3004L46.2612 9.70862L46.6451 9.28567L46.9906 8.88195ZM30.6949 13.8228H31.5202H33.2285H34.0539H35.7621H36.5875H38.2957H39.1211H40.5606L40.9061 14.957L41.9426 18.456L44.553 27.1841L42.5568 28.4338L41.7698 28.9336L40.1192 29.9718L39.313 30.4716L37.6623 31.5098L36.8562 32.0096L35.2055 33.0478L34.3993 33.5476L34.2074 33.6822L32.6527 32.7017L31.789 32.1634L30.0039 31.0484L29.1402 30.5101L27.3551 29.395L26.4914 28.8567L23.8426 27.2034L25.9732 20.0901L26.6642 17.7639L27.835 13.842H28.1421H28.9674H30.6949V13.8228ZM49.9657 23.4353L51.1173 26.8573L49.8889 26.6843L44.8793 11.2658L45.6278 10.4199L49.9657 23.4353ZM21.5969 34.6242L21.8081 33.7206L23.7083 31.0099L24.8599 31.7212L22.2303 35.4701L21.5969 34.6242ZM47.8352 26.4151L43.7084 12.5731L44.2267 11.9772L48.9676 26.5497L47.8352 26.4151ZM22.5758 30.3178L22.9789 30.5677L22.2879 31.5674L22.5758 30.3178ZM22.7294 36.2007L25.5509 32.1826L26.5682 32.8171L23.6699 37.4887L22.7294 36.2007ZM27.2784 33.2592L28.334 33.9321L25.7045 38.623L24.2457 38.1424L27.2784 33.2592ZM29.0442 34.3551L30.1959 35.0856L27.835 39.2959L26.5106 38.8729L29.0442 34.3551ZM30.906 35.5278L31.9233 36.1622L30.4262 40.1418L28.6219 39.565L30.906 35.5278ZM32.6527 36.6236L32.6911 36.6428L33.3053 41.0838L31.2515 40.4109L32.6527 36.6236ZM53.459 16.7257V19.6479L51.7507 14.3611L53.459 16.7257ZM53.459 22.3394V25.5692L52.864 23.8005L47.9887 9.18955L50.1576 12.1886L53.459 22.3394ZM9.79262 54.2529C9.8502 54.2145 9.90779 54.1952 9.96537 54.176L11.4049 53.9646L13.2092 46.2169L12.7293 46.2938C12.6909 46.2938 12.6525 46.2938 12.6141 46.2938C12.2111 46.2938 11.8464 45.9862 11.7888 45.5825C11.7312 45.1595 11.9807 44.775 12.3838 44.6597C12.4414 44.6212 12.499 44.602 12.5566 44.5828L13.6314 44.429L15.1669 37.8732L14.38 37.9694C14.3416 37.9694 14.3224 37.9694 14.284 37.9694C13.8618 37.9694 13.5163 37.6618 13.4587 37.2388C13.4011 36.8351 13.6698 36.4506 14.0537 36.3352C14.1113 36.2968 14.1689 36.2776 14.2456 36.2583L15.5892 36.1045L16.0883 33.9513L16.2994 32.9709L16.8176 30.5293L16.8368 30.4716L16.9136 30.4524L18.4299 30.2025L19.0633 30.1063L19.2361 30.0679H19.2553L19.1785 30.3755L19.0249 31.0099L18.6603 32.6056L18.5451 33.1054L18.3723 33.8937L18.334 34.0475L18.046 35.3163L17.9309 35.7969V35.8354L17.7389 36.6621L17.5278 37.5656L16.0499 44.0445V44.0829L15.8579 44.9096L15.6468 45.8132L13.8809 53.5608V53.5993L13.689 54.4259L13.4779 55.3295L12.2495 60.6741H9.88859L11.0594 55.6756L10.2149 55.7909C10.1765 55.7909 10.1381 55.7909 10.0997 55.7909C9.69665 55.7909 9.33197 55.4833 9.27438 55.0796C9.14003 54.7528 9.40874 54.3683 9.79262 54.2529Z" fill="#483729"/>
<path d="M56.2421 36.1238C56.1269 36.0469 55.935 36.0276 55.7238 36.0276C55.7238 36.0276 55.7238 36.0276 55.7046 36.0276C55.4935 36.0276 55.244 36.0661 54.9944 36.1045C54.7449 36.1622 54.4954 36.2391 54.3227 36.316C53.9772 36.489 53.862 36.6621 54.3994 36.7582H54.4186C54.6106 36.7966 54.8025 36.8543 54.9752 36.9312C55.052 36.9697 55.1096 36.9889 55.1672 37.0273C55.148 37.0273 55.1288 37.0466 55.1096 37.0658C54.8601 37.1619 54.8601 37.4503 55.0712 37.4503C55.0904 37.4503 55.1288 37.4503 55.148 37.4311C55.1864 37.4118 55.244 37.4118 55.2824 37.4118C55.3015 37.4118 55.3015 37.4118 55.3207 37.4118C55.4167 37.4118 55.5319 37.4118 55.6278 37.4311C55.743 37.4118 55.8774 37.3926 55.9925 37.3542C56.2229 37.2965 56.4148 37.2196 56.4148 37.2196C56.3188 37.3157 56.1461 37.4695 56.0309 37.5464C56.0117 37.5656 56.0117 37.5656 55.9925 37.5656C55.9925 37.5656 56.0117 37.5656 56.0117 37.5849C56.0309 37.5849 56.0309 37.6041 56.0501 37.6233C56.1653 37.7194 56.2612 37.8156 56.3572 37.9309C56.3956 37.9694 56.434 38.027 56.4724 38.0655C56.6451 38.277 56.8371 38.45 57.0098 38.6422C57.2785 38.9306 57.8352 39.565 58.1231 39.8534C58.5645 40.2571 58.9676 40.584 59.3707 40.8723C60.0233 41.3145 60.6951 41.6221 61.5012 41.8913C61.5012 41.9489 61.482 41.9874 61.482 42.0451C61.482 42.1027 61.4628 42.1412 61.4628 42.1989C61.4244 42.5641 61.4052 42.9294 61.4244 43.2947C61.7315 43.0832 61.9043 42.7564 62.1154 42.4103C62.1346 42.3719 62.173 42.3142 62.1922 42.2758C62.2114 42.2373 62.2498 42.1796 62.269 42.1412C62.2882 42.1027 62.3074 42.0643 62.3266 42.0258L62.173 41.9105L62.2882 41.7567C62.5185 41.4491 62.768 41.1607 63.0367 40.9108C63.1903 40.757 63.363 40.6224 63.555 40.5071C63.6701 40.4302 63.7853 40.3725 63.9197 40.3148C63.9388 40.3148 63.958 40.2956 63.9772 40.2956C63.9772 40.2956 63.9772 40.2956 63.9964 40.2956L63.9772 40.3148L63.958 40.334C63.8045 40.4686 63.6701 40.6032 63.5358 40.757C63.459 40.8339 63.4014 40.9108 63.3438 40.9877C63.3246 41.0069 63.3054 41.0261 63.3054 41.0454C63.2863 41.0646 63.2671 41.0838 63.2671 41.103C63.2479 41.1223 63.2287 41.1607 63.2095 41.1799C63.1327 41.2761 63.0751 41.3722 62.9983 41.4683C62.9024 41.5837 62.8256 41.699 62.7488 41.8336C62.768 41.8528 62.8064 41.872 62.8256 41.8913C62.9024 41.9297 62.96 41.9874 63.0367 42.0451C63.0751 42.0835 63.1135 42.1027 63.1711 42.1412C63.2095 42.1796 63.2479 42.1989 63.2863 42.2181C63.555 42.4103 63.8237 42.6026 64.0732 42.8141C64.2843 42.9871 64.5147 43.1601 64.7258 43.3524C64.7642 43.3908 64.8026 43.41 64.841 43.4485C64.8794 43.4869 64.9177 43.5254 64.9561 43.5446C65.0905 43.66 65.2057 43.7753 65.34 43.8907C65.3784 43.9291 65.4168 43.9676 65.4744 44.006C65.4168 43.9868 65.3784 43.9483 65.3208 43.9291C65.2632 43.8907 65.2057 43.8714 65.1481 43.833C65.0521 43.7753 64.9561 43.7369 64.8602 43.6792C64.4379 44.1214 63.9005 44.5059 63.4206 44.8327C63.1519 45.0249 62.9024 45.198 62.7104 45.3518C62.5185 45.5248 62.2882 45.5825 62.0386 45.6017C62.1538 45.9477 62.2882 46.2746 62.4033 46.5822C62.4033 46.6014 62.4225 46.6206 62.4225 46.6398C62.7488 46.6975 63.0751 46.7552 63.4014 46.8321V46.8129L63.4206 46.7744L63.459 46.6398L63.6317 46.6783C63.8621 46.736 64.1116 46.8129 64.3419 46.8898C64.6682 46.9859 64.9945 47.082 65.3016 47.1781C65.8583 47.3512 66.4149 47.5434 66.9523 47.7741C67.1059 47.8895 67.2786 48.024 67.4322 48.1971C67.5665 48.3316 67.6817 48.4662 67.816 48.6392C67.8352 48.6585 67.8352 48.6777 67.8544 48.6969C68.1231 49.0814 68.4686 49.3313 68.7949 49.5044C69.0636 49.6389 69.294 49.7158 69.4091 49.7543C69.4859 49.7735 69.5243 49.7735 69.5243 49.7927C69.5243 49.7735 69.5243 49.7735 69.5243 49.7543C69.5243 49.4851 69.5051 49.216 69.4859 48.9468C69.2748 46.3515 68.3151 43.7369 67.4897 41.872C67.3938 41.6413 67.2786 41.4299 67.1826 41.2184C67.0099 40.8531 66.8371 40.4878 66.6452 40.1418C66.4149 39.6996 66.2421 39.4112 66.2037 39.3343C66.2037 39.3151 66.1845 39.3151 66.1845 39.3151C66.1845 39.3151 66.1845 39.3151 66.1845 39.2959C66.2613 39.046 66.3573 38.8537 66.4533 38.6999C66.6452 38.3923 66.9139 38.2193 67.1826 38.1039C67.1442 38.1808 67.0867 38.277 67.0291 38.3539C66.8755 38.5846 66.8947 38.5653 67.1251 38.4884C67.2978 38.4115 67.5089 38.2385 67.6433 38.1039C67.5473 38.2962 67.6241 38.5846 67.5089 38.7768C67.3938 38.9883 67.3554 39.0075 67.5665 38.8922C68.2959 38.4692 68.9293 37.5656 69.1596 36.6236C69.5243 35.4893 69.1788 34.3358 68.3151 33.3746C67.6817 32.6825 66.5876 32.3557 65.5511 32.3557C64.0348 32.2019 62.96 31.6059 62.96 31.6059C62.96 31.6059 63.0175 31.6251 63.0751 31.8366C63.0943 31.9135 63.1519 32.0481 63.2095 32.125C63.0751 32.0865 62.9408 32.0288 62.9408 32.0288C62.9408 32.0288 62.9024 32.644 63.1327 33.0478C63.1903 33.1439 63.2479 33.2208 63.2863 33.2977C63.1903 33.4707 63.1519 33.663 63.0943 33.8552C62.9024 34.4704 62.8256 34.8934 62.3457 35.3163C61.9427 35.6816 62.1538 35.7008 62.1346 36.2007C62.1346 36.6428 61.8659 37.2773 62.0962 37.7002C62.3266 38.1424 63.0175 38.5077 63.7277 38.7384C63.5742 38.9883 63.4398 39.2574 63.2671 39.4689C63.2287 39.5266 63.1903 39.565 63.1519 39.6227C63.1135 39.6612 63.0751 39.6996 63.0367 39.7381C63.0367 39.7573 63.0367 39.7573 63.0175 39.7765C62.9216 40.0072 62.864 40.2379 62.8064 40.4878C62.8064 40.2956 62.8256 40.0841 62.8448 39.8919C62.8448 39.8534 62.864 39.815 62.864 39.7573C62.0194 39.7381 61.0214 39.7381 60.6567 39.4497C60.3304 39.1998 60.0809 38.9114 59.7354 38.6422C59.4666 38.4308 59.1212 38.2001 58.7949 37.9886C58.6221 37.8732 58.4302 37.7579 58.2766 37.6618C57.5281 37.1427 56.9714 36.5275 56.2421 36.1238Z" fill="#483729"/>
<path d="M63.2287 47.2742C63.2287 47.2166 63.2479 47.1589 63.2671 47.1012C63.2671 47.082 63.2671 47.0628 63.2863 47.0628C62.9792 47.0243 62.7297 46.9859 62.5378 46.9666C62.1347 46.909 61.7316 46.8705 61.4245 46.8705C61.1942 46.8705 61.0022 46.909 60.8487 46.9859C60.1385 47.3127 60.1193 48.2355 60.1193 49.1006C60.1193 50.331 60.2345 51.1192 60.2345 52.3496C60.2345 52.5803 60.1577 52.8687 59.6778 52.9456C59.6203 52.9456 59.5627 52.9648 59.5051 52.9648C59.3707 52.9648 59.198 52.9841 59.0061 53.0225C58.7565 53.0802 58.4878 53.1763 58.3535 53.3301C58.2575 53.4455 58.2383 53.5993 58.3151 53.7915C58.3151 53.8107 58.3343 53.83 58.3535 53.83C58.3918 53.8876 58.4494 53.9453 58.507 54.003C58.5838 54.0607 58.6798 54.0991 58.7757 54.1183C58.8909 54.1376 58.9869 54.1568 59.0636 54.176C59.1212 54.1952 59.198 54.1952 59.2748 54.2145C59.4859 54.2337 59.7546 54.2721 59.9082 54.3106C59.9466 54.3298 59.9658 54.3298 60.0041 54.349C60.1961 54.4067 60.3688 54.4836 60.5416 54.5221C60.6759 54.5605 60.8103 54.5797 60.9638 54.5797C61.3477 54.5797 61.6932 54.4644 61.8468 54.0799C61.9811 53.7338 61.8084 53.3301 61.77 52.9841C61.7316 52.6765 61.7316 52.3496 61.8084 52.042C61.8468 51.9075 61.8852 51.7537 61.9235 51.5999C62.0195 51.2346 62.1347 50.8309 62.2882 50.5233C62.365 50.3695 62.4418 50.1772 62.4994 49.985C62.5378 50.0042 62.5953 50.0234 62.6337 50.0426C62.7105 50.0811 62.7873 50.1195 62.8832 50.1772C62.96 50.2157 63.056 50.2733 63.152 50.3118C63.152 50.2733 63.152 50.2349 63.152 50.2157C63.152 50.2541 63.1328 50.2733 63.1328 50.3118C63.0944 50.0234 63.0944 49.7158 63.0752 49.4274C63.0752 49.3698 63.0752 49.3313 63.0752 49.2736C63.0752 49.0237 63.0752 48.7738 63.0752 48.5239C63.0752 48.3893 63.0944 48.2739 63.0944 48.1394C63.1136 47.9663 63.1136 47.7933 63.152 47.6203C63.1712 47.5434 63.1712 47.4665 63.1904 47.4088C63.2095 47.3704 63.2095 47.3127 63.2287 47.2742Z" fill="#483729"/>
<path d="M55.8391 43.8906C55.724 44.1406 55.6472 44.3136 55.6088 44.3905C55.6088 44.4097 55.5896 44.4289 55.5896 44.4289H55.6088C55.6472 44.4289 55.7048 44.4097 55.8007 44.4097C55.9159 44.3905 56.0503 44.3905 56.2038 44.3905C56.223 44.3905 56.223 44.3905 56.2422 44.3905C56.4533 44.3905 56.6837 44.4097 56.914 44.4482C56.9332 44.4482 56.9524 44.4482 56.9524 44.4482C57.1827 44.4674 57.4322 44.5058 57.7009 44.5635C58.5839 44.7558 59.5628 45.1018 60.4265 45.2748C60.7528 45.3325 61.0791 45.3902 61.367 45.3902C61.5589 45.3902 61.7317 45.371 61.9044 45.3325C62.1156 45.2748 62.2883 45.1979 62.4611 45.0634C62.9601 44.6404 63.9006 44.1406 64.534 43.4677C64.3037 43.3331 64.0734 43.1793 63.843 43.0447C63.5167 42.8333 63.2096 42.6218 62.9025 42.3911C62.8449 42.3526 62.8065 42.3142 62.749 42.2757C62.6914 42.2373 62.6338 42.1988 62.5762 42.1412C62.5378 42.1796 62.5186 42.2373 62.4994 42.2757C62.4802 42.3142 62.4419 42.3719 62.4227 42.4103C62.1731 42.8525 61.9812 43.237 61.4822 43.4485C61.3286 43.5061 61.1751 43.5638 60.9639 43.583C60.6376 43.6215 60.3497 43.6599 60.081 43.6792C59.8699 43.6984 59.6587 43.6984 59.4668 43.6984C58.9486 43.6984 58.4303 43.6599 57.8161 43.583C57.7201 43.5638 57.605 43.5638 57.4898 43.5446C57.2403 43.5254 56.9908 43.4869 56.7604 43.4869C56.4917 43.4869 56.2422 43.5254 56.0694 43.6407C55.9735 43.7176 55.8967 43.7753 55.8391 43.8906Z" fill="#483729"/>
<path d="M10.5604 34.6627C9.92703 34.0282 9.31282 33.3746 8.737 32.7017C8.4107 32.3172 8.08441 31.9135 7.7965 31.4905C7.50859 31.0676 7.22068 30.6254 7.04793 30.1448C7.29745 30.587 7.64294 30.9522 8.00763 31.2983C8.35312 31.6443 8.737 31.9904 9.12088 32.298C9.83106 32.894 10.5796 33.4515 11.3474 33.9513C11.4626 33.6245 11.4817 33.2208 11.4817 32.8555C11.4817 32.8171 11.4817 32.7978 11.4817 32.7594C11.4626 31.702 11.0979 30.6639 10.4069 29.8756C9.3704 28.7029 8.08441 28.6068 6.8176 28.0493C6.31856 27.8378 5.83871 27.5686 5.41644 27.2418C5.14772 27.0303 4.76384 27.261 4.80223 27.5879C4.82142 27.684 4.82142 27.7609 4.84062 27.857C5.12853 29.5873 5.30127 31.8366 6.52969 33.2016C7.16309 33.9129 8.00763 34.3935 8.94814 34.5858C9.44718 34.7203 10.0422 34.7588 10.5604 34.6627Z" fill="#0E5850"/>
<path d="M14.3417 37.1042C14.3225 37.1042 14.3033 37.1042 14.2841 37.1042C14.0729 37.1042 13.9002 36.9504 13.8618 36.739C13.8426 36.5852 13.9194 36.4314 14.0345 36.3545C13.6507 36.4698 13.382 36.8351 13.4395 37.258C13.4971 37.681 13.8426 37.9886 14.2649 37.9886C14.3033 37.9886 14.3225 37.9886 14.3608 37.9886L15.1478 37.8925L17.4703 37.6233L17.6814 36.7197L15.3589 36.9889L14.3417 37.1042Z" fill="#0E5850"/>
<path d="M12.691 45.4094C12.6718 45.4094 12.6526 45.4094 12.6334 45.4094C12.4223 45.4094 12.2495 45.2556 12.2303 45.0441C12.2111 44.8903 12.2879 44.7366 12.4031 44.6404C12.0192 44.7558 11.7505 45.1403 11.8081 45.5632C11.8656 45.9862 12.2303 46.2746 12.6334 46.2746C12.6718 46.2746 12.7102 46.2746 12.7486 46.2746L13.2284 46.1976L15.6085 45.8516L15.8196 44.948L13.4588 45.2941L12.691 45.4094Z" fill="#0E5850"/>
<path d="M10.0806 55.0027C10.0614 55.0027 10.0422 55.0027 10.0231 55.0027C9.81192 55.0027 9.63918 54.8489 9.61998 54.6374C9.60079 54.4836 9.67756 54.3298 9.79273 54.2337C9.40885 54.3491 9.14013 54.7336 9.19771 55.1565C9.2553 55.5795 9.61998 55.8678 10.0231 55.8678C10.0614 55.8678 10.0998 55.8678 10.1382 55.8678L10.9828 55.7525L13.4012 55.4064L13.6123 54.5029L11.2131 54.8489L10.0806 55.0027Z" fill="#0E5850"/>
<path d="M61.1942 59.0207L61.0982 59.0015L60.3881 58.9054L59.4283 54.8297L60.0809 54.9258C60.1001 54.9258 60.1193 54.9258 60.1385 54.9258C60.2921 54.9258 60.4264 54.8489 60.484 54.7143C60.3305 54.6759 60.1961 54.6182 60.0426 54.5605C59.9658 54.5221 59.889 54.5028 59.8122 54.4836C59.6587 54.4452 59.4859 54.4644 59.3132 54.4644C59.198 54.4644 59.1021 54.4644 58.9869 54.4644C58.8909 54.4452 58.7949 54.426 58.6798 54.4067C58.6414 54.4067 58.603 54.3683 58.5454 54.3683C58.2959 54.2722 58.0848 54.0799 57.9696 53.8108C57.9696 53.7915 57.9696 53.7915 57.9504 53.7723L57.0867 53.6377L56.1846 49.812L57.5089 50.0042L58.1807 52.8303C58.3727 52.6572 58.6222 52.5996 58.8525 52.5996L58.2767 50.1196L59.0061 50.2349L59.2748 50.2734C59.294 50.2734 59.3132 50.2734 59.3324 50.2734C59.5435 50.2734 59.7163 50.1196 59.7355 49.9081C59.7738 49.6774 59.6011 49.4659 59.39 49.4275L58.795 49.3506L58.0656 49.2352L57.1826 45.4479L57.9312 45.5632L58.2191 45.6017C58.2383 45.6017 58.2575 45.6017 58.2767 45.6017C58.4878 45.6017 58.6606 45.4479 58.6798 45.2364C58.699 45.1403 58.6606 45.0249 58.603 44.948C58.5646 44.948 58.5454 44.9288 58.507 44.9288C58.2575 44.8711 57.9888 44.8327 57.7393 44.8135C57.5473 44.7942 57.3362 44.775 57.1443 44.7558C57.1059 44.7558 57.0483 44.7558 56.9907 44.7366C56.7988 44.7173 56.5876 44.6981 56.3957 44.6981L56.2421 44.6597L55.935 44.5635L55.5895 44.4482H55.5704L55.436 44.4097L55.34 44.3713C55.3208 44.3713 55.3208 44.3713 55.3016 44.3713L55.2057 44.3521L54.9178 44.3136L54.2652 41.5068L55.5895 41.699L55.9926 43.41C56.2613 43.3139 56.5492 43.3331 56.7028 43.3331L56.3381 41.8144L57.0867 41.9297L57.4322 41.9874C57.4514 41.9874 57.4706 41.9874 57.4898 41.9874C57.7009 41.9874 57.8736 41.8336 57.8928 41.6221C57.9312 41.3914 57.7585 41.1799 57.5473 41.1415L56.8947 41.0454L56.1462 40.93L55.4168 37.8348L56.1462 37.9309C56.127 37.9117 56.1078 37.8732 56.0886 37.854C55.9542 37.681 55.7239 37.681 55.5128 37.6618C55.4744 37.6618 55.436 37.6618 55.3784 37.6618C55.2249 37.6618 55.0713 37.7002 54.937 37.6425C54.8026 37.5849 54.6874 37.5464 54.649 37.3926C54.6298 37.3157 54.649 37.2388 54.6682 37.1619L54.8602 37.1235L55.2057 37.0466L54.4763 36.912L54.1308 36.8543L54.054 36.8159L53.8045 36.7774L53.2095 36.6621C53.1903 36.6621 53.1711 36.6621 53.1519 36.6621L52.8832 35.547C52.864 35.4317 52.7872 35.3355 52.6721 35.2779C52.5761 35.2202 52.4801 35.201 52.3841 35.2394C52.1538 35.2971 52.0195 35.5086 52.077 35.7393L52.1538 36.0276L52.2882 36.6044L51.7699 36.5467L51.1749 36.4698L51.3285 37.1427L51.3669 37.3349L52.4801 37.4695L53.1903 40.4878L52.0579 40.3148L52.2498 41.1799L53.3822 41.353L54.0348 44.1598L52.8832 43.9868L53.0751 44.8519L54.2268 45.0249L55.1097 48.8123L53.9197 48.6392L54.1116 49.5044L55.3016 49.6774L56.2038 53.5031L54.9945 53.3301L55.1865 54.1952L56.3957 54.3683L57.3554 58.444L56.127 58.271L56.3189 59.1361L57.5665 59.3091L57.8928 60.6933H58.7566L58.4686 59.4244L59.793 59.6167L60.0426 60.6933H60.7719L60.5416 59.732L61.0406 59.809C61.0598 59.809 61.079 59.809 61.0982 59.809C61.1558 59.809 61.1942 59.7897 61.2518 59.7705C61.3861 59.7128 61.4821 59.5975 61.5205 59.4437C61.5781 59.2707 61.4053 59.0592 61.1942 59.0207ZM53.363 37.5656L54.6682 37.7194L55.3976 40.7954L54.0732 40.6032L53.363 37.5656ZM55.1289 45.1595L55.2249 45.1787L56.4341 45.3518L57.317 49.1391L55.9926 48.9468L55.1289 45.1595ZM58.2959 58.5978L57.3362 54.5221L58.6606 54.7143L59.6203 58.79L58.2959 58.5978Z" fill="#0E5850"/>
<path d="M53.747 33.7975L54.2652 36.0469C54.4763 35.97 54.7259 35.9123 54.9562 35.8738L54.3612 33.3361C54.342 33.24 54.2844 33.1823 54.2268 33.1247C54.15 33.067 54.0541 33.0478 53.9389 33.067C53.747 33.1054 53.6318 33.2977 53.6702 33.4899L53.747 33.7975Z" fill="#0E5850"/>
<path d="M92.3652 29.7799C93.92 29.7799 95.1868 29.5684 96.1465 29.1262C97.1254 28.7033 97.6244 28.165 97.6244 27.4729V27.3768V27.2806C97.6052 27.1845 97.5668 27.1076 97.5284 27.0115C97.4325 26.8 97.2405 26.5885 96.9334 26.3771C96.0697 25.8003 94.4766 25.3966 92.1349 25.1659C86.1464 24.5315 83.1521 22.2245 83.1521 18.2449C83.1521 16.3608 83.9007 14.7652 85.3978 13.4963C87.0677 12.0544 89.3902 11.3239 92.3844 11.3239C95.9929 11.3239 98.7952 12.2275 100.811 14.0346C101.29 14.4576 101.559 14.9767 101.598 15.6111C101.636 16.2455 101.444 16.803 101.003 17.2644C100.58 17.745 100.062 18.0142 99.4286 18.0526C98.7952 18.0911 98.2386 17.8988 97.778 17.4567C97.2981 17.0337 96.6263 16.7069 95.7626 16.4377C94.7453 16.1109 93.6129 15.9379 92.3652 15.9379C90.9641 15.9379 89.8316 16.1494 89.0063 16.5723C88.1809 16.9953 87.7587 17.5528 87.7587 18.2449V18.341V18.4371C87.7779 18.5525 87.7971 18.6486 87.8163 18.7255C87.9314 18.9754 88.1042 19.1869 88.3729 19.3792C89.1215 19.9559 90.5226 20.3404 92.5956 20.5327L92.8643 20.5711L93.1522 20.6096L93.7856 20.7057C94.2846 20.7634 94.7645 20.8403 95.2252 20.9364C96.4536 21.1863 97.5092 21.5131 98.4114 21.9169C100.964 23.0896 102.231 24.9352 102.231 27.4537C102.231 29.2993 101.502 30.8565 100.024 32.1061C98.2578 33.6249 95.705 34.3747 92.3461 34.3747C88.4305 34.3747 85.417 33.4711 83.2865 31.6447C82.8066 31.2218 82.5379 30.7027 82.4611 30.0875C82.4228 29.4531 82.5955 28.8955 83.0178 28.4149C83.44 27.9343 83.9583 27.6651 84.5917 27.5882C85.2059 27.5498 85.7625 27.7228 86.2424 28.1458C86.7606 28.5879 87.5092 28.9532 88.4881 29.2416C89.6589 29.6069 90.9257 29.7799 92.3652 29.7799Z" fill="#483729"/>
<path d="M105.859 19.225C105.225 19.225 104.669 19.0135 104.208 18.5714C103.767 18.11 103.555 17.5524 103.555 16.918C103.555 16.2836 103.767 15.7261 104.208 15.2647C104.669 14.8225 105.225 14.611 105.859 14.611H118.834C119.467 14.611 120.024 14.8225 120.485 15.2647C120.926 15.7261 121.137 16.2836 121.137 16.918C121.137 17.5524 120.926 18.11 120.485 18.5714C120.024 19.0135 119.467 19.225 118.834 19.225H114.65V32.0865C114.65 32.7209 114.438 33.2592 113.997 33.7014C113.536 34.1628 112.98 34.3935 112.346 34.3935C111.713 34.3935 111.175 34.1628 110.734 33.7014C110.273 33.2592 110.043 32.7209 110.043 32.0865V19.225H105.859Z" fill="#483729"/>
<path d="M125.744 34.4127C125.11 34.4127 124.554 34.2013 124.093 33.7591C123.651 33.2977 123.44 32.7402 123.44 32.1057V16.9372C123.44 16.3028 123.651 15.7453 124.093 15.2839C124.554 14.8417 125.11 14.6302 125.744 14.6302H138.719C139.352 14.6302 139.909 14.8417 140.369 15.2839C140.811 15.7453 141.022 16.3028 141.022 16.9372C141.022 17.5716 140.811 18.1292 140.369 18.5906C139.909 19.0327 139.352 19.2442 138.719 19.2442H128.047V22.2049H137.625C138.258 22.2049 138.815 22.4163 139.275 22.8585C139.717 23.3199 139.928 23.8774 139.928 24.5119C139.928 25.1463 139.717 25.7038 139.275 26.1652C138.815 26.6074 138.258 26.8189 137.625 26.8189H128.047V29.7795H138.719C139.352 29.7795 139.909 29.991 140.369 30.4332C140.811 30.8946 141.022 31.4521 141.022 32.0865C141.022 32.7209 140.811 33.2785 140.369 33.7399C139.909 34.182 139.352 34.3935 138.719 34.3935H125.744V34.4127Z" fill="#483729"/>
<path d="M146.3 34.4127C145.667 34.4127 145.11 34.182 144.65 33.7206C144.208 33.2785 143.997 32.7402 143.997 32.1057V16.9372C143.997 16.3028 144.208 15.7453 144.65 15.2839C145.11 14.8417 145.667 14.6302 146.3 14.6302H154.4C156.377 14.6302 158.066 15.3415 159.467 16.745C160.869 18.1484 161.579 19.8402 161.579 21.8204C161.579 24.3196 160.542 26.2998 158.45 27.7224L160.984 30.5677C161.425 31.0484 161.617 31.6059 161.579 32.2403C161.56 32.8747 161.31 33.413 160.83 33.8168C160.389 34.2205 159.871 34.4127 159.276 34.4127C158.604 34.4127 158.028 34.1628 157.567 33.663L153.383 29.0105H148.604V32.1057C148.604 32.7402 148.393 33.2785 147.951 33.7206C147.471 34.182 146.934 34.4127 146.3 34.4127ZM148.604 24.3773H154.4C155.13 24.3773 155.725 24.1274 156.204 23.6275C156.704 23.1277 156.953 22.5125 156.953 21.8204C156.953 21.109 156.704 20.5131 156.204 20.0132C155.725 19.5134 155.11 19.2634 154.4 19.2634H148.604V24.3773Z" fill="#483729"/>
<path d="M166.896 34.4127C166.262 34.4127 165.706 34.2013 165.245 33.7591C164.803 33.2977 164.592 32.7402 164.592 32.1057V16.9372C164.592 16.3028 164.803 15.7453 165.245 15.2839C165.706 14.8417 166.262 14.6302 166.896 14.6302H179.871C180.504 14.6302 181.061 14.8417 181.521 15.2839C181.963 15.7453 182.174 16.3028 182.174 16.9372C182.174 17.5716 181.963 18.1292 181.521 18.5906C181.061 19.0327 180.504 19.2442 179.871 19.2442H169.199V22.2049H178.777C179.41 22.2049 179.967 22.4163 180.427 22.8585C180.869 23.3199 181.08 23.8774 181.08 24.5119C181.08 25.1463 180.869 25.7038 180.427 26.1652C179.967 26.6074 179.41 26.8189 178.777 26.8189H169.199V29.7795H179.871C180.504 29.7795 181.061 29.991 181.521 30.4332C181.963 30.8946 182.174 31.4521 182.174 32.0865C182.174 32.7209 181.963 33.2785 181.521 33.7399C181.061 34.182 180.504 34.3935 179.871 34.3935H166.896V34.4127Z" fill="#483729"/>
<path d="M194.036 34.4127C191.31 34.4127 188.988 33.4515 187.049 31.5098C185.111 29.568 184.151 27.2418 184.151 24.5119C184.151 21.7819 185.111 19.4557 187.049 17.514C188.988 15.5723 191.31 14.611 194.036 14.611C196.761 14.611 199.084 15.5723 201.023 17.514C202.961 19.4557 203.921 21.7819 203.921 24.5119C203.921 27.2418 202.961 29.568 201.023 31.5098C199.084 33.4323 196.761 34.4127 194.036 34.4127ZM194.036 19.225C192.596 19.225 191.349 19.7441 190.312 20.7822C189.276 21.8204 188.758 23.0508 188.758 24.5119C188.758 25.973 189.276 27.2034 190.312 28.2415C191.349 29.2797 192.577 29.7988 194.036 29.7988C195.495 29.7988 196.723 29.2797 197.76 28.2415C198.796 27.2034 199.314 25.973 199.314 24.5119C199.314 23.0508 198.796 21.8204 197.76 20.7822C196.723 19.7441 195.475 19.225 194.036 19.225Z" fill="#483729"/>
<path d="M237.069 11.5542C237.645 11.8426 238.029 12.2848 238.221 12.9C238.412 13.496 238.374 14.0727 238.086 14.6495L228.873 33.1247C228.451 33.9898 227.779 34.4128 226.838 34.4128C225.879 34.4128 225.188 33.9898 224.766 33.1247L221.906 27.3572L219.007 33.1247C218.585 33.9898 217.913 34.4128 216.973 34.4128C216.013 34.4128 215.322 33.9898 214.9 33.1247L205.687 14.6495C205.399 14.0727 205.36 13.496 205.552 12.9C205.744 12.2848 206.128 11.8426 206.704 11.5542C207.28 11.2659 207.875 11.2274 208.489 11.4581C209.084 11.6504 209.525 12.0349 209.813 12.6116L216.992 26.915L219.334 22.2049L215.572 14.6495C215.284 14.0727 215.245 13.496 215.437 12.9C215.629 12.2848 216.013 11.8426 216.589 11.5542C217.165 11.2659 217.76 11.2274 218.374 11.4581C218.969 11.6504 219.41 12.0349 219.698 12.6116L221.944 17.0334L224.151 12.6116C224.439 12.0349 224.881 11.6504 225.476 11.4581C226.09 11.2466 226.685 11.2659 227.261 11.5542C227.837 11.8426 228.22 12.2848 228.412 12.9C228.604 13.496 228.566 14.0727 228.278 14.6495L224.516 22.2049L226.896 26.915L234.036 12.6116C234.324 12.0349 234.766 11.6504 235.361 11.4581C235.898 11.2274 236.493 11.2659 237.069 11.5542Z" fill="#483729"/>
<path d="M249.699 34.4127C246.973 34.4127 244.65 33.4515 242.712 31.5098C240.773 29.568 239.814 27.2418 239.814 24.5119C239.814 21.7819 240.773 19.4557 242.712 17.514C244.65 15.5723 246.973 14.611 249.699 14.611C252.424 14.611 254.747 15.5723 256.685 17.514C258.624 19.4557 259.583 21.7819 259.583 24.5119C259.583 27.2418 258.624 29.568 256.685 31.5098C254.766 33.4323 252.424 34.4127 249.699 34.4127ZM249.699 19.225C248.259 19.225 247.011 19.7441 245.975 20.7822C244.938 21.8204 244.42 23.0508 244.42 24.5119C244.42 25.973 244.938 27.2034 245.975 28.2415C247.011 29.2797 248.24 29.7988 249.699 29.7988C251.157 29.7988 252.386 29.2797 253.422 28.2415C254.459 27.2034 254.977 25.973 254.977 24.5119C254.977 23.0508 254.459 21.8204 253.422 20.7822C252.405 19.7441 251.157 19.225 249.699 19.225Z" fill="#483729"/>
<path d="M271.445 34.4127C268.72 34.4127 266.397 33.4515 264.459 31.5098C262.52 29.568 261.56 27.2418 261.56 24.5119C261.56 21.7819 262.52 19.4557 264.459 17.514C266.397 15.5723 268.72 14.611 271.445 14.611C274.171 14.611 276.493 15.5723 278.432 17.514C280.371 19.4557 281.33 21.7819 281.33 24.5119C281.33 27.2418 280.371 29.568 278.432 31.5098C276.493 33.4323 274.152 34.4127 271.445 34.4127ZM271.445 19.225C270.006 19.225 268.758 19.7441 267.722 20.7822C266.685 21.8204 266.167 23.0508 266.167 24.5119C266.167 25.973 266.685 27.2034 267.722 28.2415C268.758 29.2797 269.987 29.7988 271.445 29.7988C272.904 29.7988 274.133 29.2797 275.169 28.2415C276.205 27.2034 276.724 25.973 276.724 24.5119C276.724 23.0508 276.205 21.8204 275.169 20.7822C274.133 19.7441 272.885 19.225 271.445 19.225Z" fill="#483729"/>
<path d="M286.589 34.4127C285.956 34.4127 285.399 34.182 284.939 33.7206C284.497 33.2785 284.286 32.7402 284.286 32.1057V16.9372C284.286 16.3028 284.497 15.7453 284.939 15.2839C285.399 14.8417 285.956 14.6302 286.589 14.6302H292.54C295.265 14.6302 297.588 15.5915 299.526 17.5332C301.465 19.4749 302.424 21.8011 302.424 24.5311C302.424 27.261 301.465 29.5873 299.526 31.529C297.588 33.4707 295.265 34.432 292.54 34.432H286.589V34.4127ZM288.893 29.7795H292.54C293.979 29.7795 295.227 29.2604 296.263 28.2223C297.3 27.1841 297.818 25.9537 297.818 24.4926C297.818 23.0315 297.3 21.8011 296.263 20.763C295.227 19.7248 293.998 19.2058 292.54 19.2058H288.893V29.7795Z" fill="#483729"/>
<path d="M85.6665 55.5797C84.8988 55.176 84.3037 54.5992 83.8815 53.8879C83.4592 53.1766 83.2289 52.3691 83.2289 51.4656C83.2289 50.562 83.44 49.7545 83.8815 49.0432C84.3229 48.3319 84.8988 47.7551 85.6665 47.3514C86.4343 46.9477 87.2788 46.7362 88.2193 46.7362C89.1598 46.7362 90.0236 46.9477 90.7721 47.3514C91.5207 47.7551 92.1157 48.3319 92.5572 49.0432C92.9986 49.7545 93.2098 50.562 93.2098 51.4656C93.2098 52.3691 92.9986 53.1766 92.5572 53.8879C92.1157 54.5992 91.5207 55.176 90.7721 55.5797C90.0236 55.9834 89.1598 56.1949 88.2193 56.1949C87.2788 56.1949 86.4343 55.9834 85.6665 55.5797ZM89.6973 54.0225C90.1387 53.7726 90.465 53.4265 90.7145 52.9843C90.9641 52.5422 91.0792 52.0423 91.0792 51.4656C91.0792 50.908 90.9641 50.389 90.7145 49.9468C90.465 49.5046 90.1195 49.1586 89.6973 48.9086C89.2558 48.6587 88.776 48.5434 88.2385 48.5434C87.7011 48.5434 87.2212 48.6587 86.7798 48.9086C86.3383 49.1586 86.012 49.5046 85.7625 49.9468C85.513 50.389 85.3978 50.8888 85.3978 51.4656C85.3978 52.0231 85.513 52.5422 85.7625 52.9843C86.012 53.4265 86.3575 53.7726 86.7798 54.0225C87.202 54.2724 87.7011 54.3878 88.2385 54.3878C88.776 54.3878 89.2558 54.2724 89.6973 54.0225Z" fill="#17362E"/>
<path d="M97.5284 55.0988C96.799 54.3683 96.4343 53.3494 96.4343 52.0036V46.8898H98.5457V51.9267C98.5457 53.5608 99.2175 54.3875 100.58 54.3875C101.233 54.3875 101.751 54.1953 102.097 53.7915C102.442 53.3878 102.615 52.7726 102.615 51.9267V46.8898H104.707V52.0036C104.707 53.3494 104.342 54.3683 103.613 55.0988C102.884 55.8294 101.866 56.1754 100.561 56.1754C99.2558 56.1754 98.2578 55.8294 97.5284 55.0988Z" fill="#17362E"/>
<path d="M110.216 48.62H107.298V46.8898H115.245V48.62H112.327V56.0409H110.216V48.62Z" fill="#17362E"/>
<path d="M118.085 46.8898H122.231C123.229 46.8898 124.093 47.082 124.861 47.4665C125.628 47.851 126.204 48.3701 126.627 49.0622C127.049 49.7543 127.26 50.5425 127.26 51.4653C127.26 52.3881 127.049 53.1763 126.627 53.8684C126.204 54.5605 125.609 55.0988 124.861 55.4641C124.112 55.8294 123.229 56.0409 122.231 56.0409H118.085V46.8898ZM122.116 54.2914C123.037 54.2914 123.747 54.0415 124.304 53.5224C124.842 53.0225 125.11 52.3304 125.11 51.4461C125.11 50.581 124.842 49.8889 124.304 49.3698C123.767 48.8699 123.037 48.6008 122.116 48.6008H120.177V54.2722H122.116V54.2914Z" fill="#17362E"/>
<path d="M132.404 55.5795C131.636 55.1757 131.041 54.599 130.619 53.8877C130.197 53.1763 129.966 52.3689 129.966 51.4653C129.966 50.5617 130.177 49.7543 130.619 49.043C131.06 48.3316 131.636 47.7549 132.404 47.3512C133.172 46.9474 134.016 46.736 134.957 46.736C135.897 46.736 136.761 46.9474 137.51 47.3512C138.258 47.7549 138.853 48.3316 139.295 49.043C139.736 49.7543 139.947 50.5617 139.947 51.4653C139.947 52.3689 139.736 53.1763 139.295 53.8877C138.853 54.599 138.258 55.1757 137.51 55.5795C136.761 55.9832 135.897 56.1947 134.957 56.1947C134.016 56.1947 133.153 55.9832 132.404 55.5795ZM136.415 54.0222C136.857 53.7723 137.183 53.4263 137.433 52.9841C137.682 52.5419 137.797 52.0421 137.797 51.4653C137.797 50.9078 137.682 50.3887 137.433 49.9465C137.183 49.5044 136.838 49.1583 136.415 48.9084C135.974 48.6585 135.494 48.5431 134.957 48.5431C134.419 48.5431 133.939 48.6585 133.498 48.9084C133.057 49.1583 132.73 49.5044 132.481 49.9465C132.231 50.3887 132.116 50.8886 132.116 51.4653C132.116 52.0228 132.231 52.5419 132.481 52.9841C132.73 53.4263 133.076 53.7723 133.498 54.0222C133.92 54.2722 134.419 54.3875 134.957 54.3875C135.494 54.3875 135.993 54.2722 136.415 54.0222Z" fill="#17362E"/>
<path d="M145.091 55.5795C144.323 55.1757 143.728 54.599 143.306 53.8877C142.884 53.1763 142.654 52.3689 142.654 51.4653C142.654 50.5617 142.865 49.7543 143.306 49.043C143.748 48.3316 144.323 47.7549 145.091 47.3512C145.859 46.9474 146.704 46.736 147.644 46.736C148.585 46.736 149.448 46.9474 150.197 47.3512C150.945 47.7549 151.54 48.3316 151.982 49.043C152.423 49.7543 152.634 50.5617 152.634 51.4653C152.634 52.3689 152.423 53.1763 151.982 53.8877C151.54 54.599 150.945 55.1757 150.197 55.5795C149.448 55.9832 148.585 56.1947 147.644 56.1947C146.723 56.1947 145.859 55.9832 145.091 55.5795ZM149.122 54.0222C149.563 53.7723 149.89 53.4263 150.139 52.9841C150.389 52.5419 150.504 52.0421 150.504 51.4653C150.504 50.9078 150.389 50.3887 150.139 49.9465C149.89 49.5044 149.544 49.1583 149.122 48.9084C148.68 48.6585 148.201 48.5431 147.663 48.5431C147.126 48.5431 146.646 48.6585 146.204 48.9084C145.763 49.1583 145.437 49.5044 145.187 49.9465C144.938 50.3887 144.822 50.8886 144.822 51.4653C144.822 52.0228 144.938 52.5419 145.187 52.9841C145.437 53.4263 145.782 53.7723 146.204 54.0222C146.627 54.2722 147.126 54.3875 147.663 54.3875C148.201 54.3875 148.68 54.2722 149.122 54.0222Z" fill="#17362E"/>
<path d="M161.752 56.0409L159.986 53.5032H159.89H158.047V56.0409H155.936V46.909H159.89C160.696 46.909 161.406 47.0436 162.001 47.3127C162.596 47.5819 163.057 47.9664 163.383 48.4662C163.709 48.9661 163.863 49.5428 163.863 50.2349C163.863 50.927 163.709 51.5038 163.383 51.9844C163.057 52.4842 162.596 52.8495 162.001 53.1187L164.055 56.0601H161.752V56.0409ZM161.214 49.0237C160.888 48.7546 160.408 48.62 159.775 48.62H158.047V51.8114H159.775C160.408 51.8114 160.888 51.6768 161.214 51.3884C161.54 51.1193 161.713 50.7155 161.713 50.2157C161.713 49.6966 161.56 49.2929 161.214 49.0237Z" fill="#17362E"/>
<path d="M179.621 56.1947L178.527 55.1757C177.663 55.8486 176.646 56.1947 175.475 56.1947C174.823 56.1947 174.228 56.0793 173.69 55.8678C173.153 55.6564 172.75 55.3488 172.443 54.9643C172.135 54.5798 172.001 54.1568 172.001 53.6762C172.001 53.1187 172.155 52.6188 172.481 52.1766C172.807 51.7537 173.306 51.3307 174.016 50.9462C173.69 50.6002 173.441 50.2734 173.306 49.9658C173.153 49.6582 173.076 49.3313 173.076 49.0045C173.076 48.5623 173.191 48.1778 173.421 47.8318C173.652 47.4857 173.997 47.2358 174.42 47.0436C174.842 46.8513 175.341 46.7552 175.917 46.7552C176.704 46.7552 177.337 46.9475 177.817 47.332C178.297 47.7165 178.527 48.2163 178.527 48.87C178.527 49.3314 178.393 49.7543 178.105 50.1196C177.817 50.4849 177.375 50.8309 176.742 51.177L178.412 52.7342C178.604 52.3112 178.757 51.8498 178.873 51.3115L180.504 51.8114C180.331 52.6188 180.043 53.3109 179.679 53.8877L180.754 54.8874L179.621 56.1947ZM177.318 54.0607L175.111 52.0036C174.707 52.2343 174.42 52.465 174.228 52.6957C174.055 52.9264 173.959 53.1763 173.959 53.4647C173.959 53.8108 174.112 54.0799 174.4 54.2914C174.688 54.5029 175.091 54.599 175.59 54.599C176.243 54.599 176.819 54.426 177.318 54.0607ZM175.168 48.3893C174.995 48.5431 174.899 48.7546 174.899 48.9853C174.899 49.1775 174.938 49.3313 175.034 49.5044C175.13 49.6582 175.322 49.8889 175.59 50.158C176.032 49.9273 176.339 49.7159 176.512 49.5236C176.684 49.3314 176.78 49.1391 176.78 48.9084C176.78 48.6777 176.704 48.5047 176.55 48.3509C176.397 48.2163 176.166 48.1394 175.878 48.1394C175.59 48.1586 175.36 48.2355 175.168 48.3893Z" fill="#17362E"/>
<path d="M195.226 47.2935C195.821 47.5626 196.282 47.9471 196.608 48.447C196.934 48.9468 197.088 49.5236 197.088 50.2157C197.088 50.8886 196.934 51.4653 196.608 51.9652C196.282 52.465 195.821 52.8495 195.226 53.1187C194.631 53.3878 193.921 53.5224 193.115 53.5224H191.272V56.0409H189.161V46.909H193.115C193.94 46.8898 194.631 47.0243 195.226 47.2935ZM194.458 51.3692C194.784 51.1 194.957 50.6963 194.957 50.1965C194.957 49.6774 194.784 49.2929 194.458 49.0237C194.132 48.7546 193.652 48.62 193.019 48.62H191.291V51.7921H193.019C193.633 51.7921 194.132 51.6576 194.458 51.3692Z" fill="#17362E"/>
<path d="M200.274 46.8898H202.385V54.3106H206.953V56.0409H200.274V46.8898Z" fill="#17362E"/>
<path d="M215.936 54.0799H211.694L210.888 56.0409H208.719L212.788 46.909H214.881L218.969 56.0409H216.762L215.936 54.0799ZM215.284 52.465L213.844 48.9661L212.404 52.465H215.284Z" fill="#17362E"/>
<path d="M225.437 52.7918V56.0409H223.326V52.7726L219.794 46.8898H222.04L224.478 50.9462L226.915 46.8898H228.988L225.437 52.7918Z" fill="#17362E"/>
<path d="M237.338 51.3115H239.276V55.0219C238.777 55.3872 238.201 55.6756 237.549 55.8871C236.896 56.0985 236.244 56.1947 235.572 56.1947C234.631 56.1947 233.768 55.9832 233.019 55.5795C232.27 55.1757 231.675 54.6182 231.234 53.8877C230.792 53.1571 230.581 52.3497 230.581 51.4461C230.581 50.5425 230.792 49.7351 231.234 49.0045C231.656 48.2932 232.27 47.7164 233.019 47.3127C233.787 46.909 234.65 46.6975 235.61 46.6975C236.416 46.6975 237.126 46.8321 237.779 47.1012C238.432 47.3704 238.969 47.7549 239.43 48.274L238.067 49.5236C237.414 48.8315 236.627 48.4854 235.706 48.4854C235.13 48.4854 234.612 48.6008 234.151 48.8507C233.691 49.1006 233.345 49.4467 233.096 49.8889C232.846 50.331 232.712 50.8501 232.712 51.4076C232.712 51.9652 232.846 52.4842 233.096 52.9264C233.345 53.3686 233.691 53.7146 234.151 53.9646C234.593 54.2145 235.111 54.3298 235.687 54.3298C236.301 54.3298 236.839 54.1953 237.338 53.9453V51.3115Z" fill="#17362E"/>
<path d="M248.739 56.0409L246.973 53.5032H246.877H245.034V56.0409H242.923V46.909H246.877C247.683 46.909 248.393 47.0436 248.988 47.3127C249.583 47.5819 250.044 47.9664 250.37 48.4662C250.697 48.9661 250.85 49.5428 250.85 50.2349C250.85 50.927 250.697 51.5038 250.37 51.9844C250.044 52.4842 249.583 52.8495 248.988 53.1187L251.042 56.0601H248.739V56.0409ZM248.201 49.0237C247.875 48.7546 247.395 48.62 246.762 48.62H245.034V51.8114H246.762C247.395 51.8114 247.875 51.6768 248.201 51.3884C248.528 51.1193 248.7 50.7155 248.7 50.2157C248.7 49.6966 248.528 49.2929 248.201 49.0237Z" fill="#17362E"/>
<path d="M256.052 55.5795C255.284 55.1757 254.689 54.599 254.267 53.8877C253.844 53.1763 253.614 52.3689 253.614 51.4653C253.614 50.5617 253.825 49.7543 254.267 49.043C254.708 48.3316 255.284 47.7549 256.052 47.3512C256.82 46.9474 257.664 46.736 258.605 46.736C259.545 46.736 260.409 46.9474 261.157 47.3512C261.906 47.7549 262.501 48.3316 262.942 49.043C263.384 49.7543 263.595 50.5617 263.595 51.4653C263.595 52.3689 263.384 53.1763 262.942 53.8877C262.501 54.599 261.906 55.1757 261.157 55.5795C260.409 55.9832 259.545 56.1947 258.605 56.1947C257.664 56.1947 256.82 55.9832 256.052 55.5795ZM260.083 54.0222C260.524 53.7723 260.85 53.4263 261.1 52.9841C261.349 52.5419 261.464 52.0421 261.464 51.4653C261.464 50.9078 261.349 50.3887 261.1 49.9465C260.85 49.5044 260.505 49.1583 260.083 48.9084C259.641 48.6585 259.161 48.5431 258.624 48.5431C258.086 48.5431 257.606 48.6585 257.165 48.9084C256.724 49.1583 256.397 49.5044 256.148 49.9465C255.898 50.3887 255.783 50.8886 255.783 51.4653C255.783 52.0228 255.898 52.5419 256.148 52.9841C256.397 53.4263 256.743 53.7723 257.165 54.0222C257.587 54.2722 258.086 54.3875 258.624 54.3875C259.161 54.3875 259.641 54.2722 260.083 54.0222Z" fill="#17362E"/>
<path d="M267.914 55.0988C267.184 54.3683 266.82 53.3494 266.82 52.0036V46.8898H268.931V51.9267C268.931 53.5608 269.603 54.3875 270.965 54.3875C271.618 54.3875 272.136 54.1953 272.482 53.7915C272.827 53.3878 273 52.7726 273 51.9267V46.8898H275.092V52.0036C275.092 53.3494 274.728 54.3683 273.998 55.0988C273.269 55.8294 272.251 56.1754 270.946 56.1754C269.641 56.1754 268.624 55.8294 267.914 55.0988Z" fill="#17362E"/>
<path d="M287.242 46.8898V56.0409H285.515L280.966 50.4848V56.0409H278.873V46.909H280.62L285.15 52.465V46.909H287.242V46.8898Z" fill="#17362E"/>
<path d="M291.1 46.8898H295.246C296.244 46.8898 297.108 47.082 297.875 47.4665C298.643 47.851 299.219 48.3701 299.641 49.0622C300.064 49.7543 300.275 50.5425 300.275 51.4653C300.275 52.3881 300.064 53.1763 299.641 53.8684C299.219 54.5605 298.624 55.0988 297.875 55.4641C297.127 55.8294 296.244 56.0409 295.246 56.0409H291.1V46.8898ZM295.131 54.2914C296.052 54.2914 296.762 54.0415 297.319 53.5224C297.856 53.0225 298.125 52.3304 298.125 51.4461C298.125 50.581 297.856 49.8889 297.319 49.3698C296.781 48.8699 296.052 48.6008 295.131 48.6008H293.211V54.2722H295.131V54.2914Z" fill="#17362E"/>
<path d="M306.417 5.05619C306.302 5.07541 306.187 5.09464 306.091 5.11386C303.941 5.55604 301.119 5.86364 299.469 7.47853C298.605 8.30521 298.029 9.40103 297.837 10.5738C297.722 11.2082 297.703 11.9772 297.856 12.6308C298.624 11.8042 299.411 11.0159 300.236 10.2469C300.716 9.80476 301.215 9.40103 301.714 9.01653C302.233 8.63203 302.77 8.26676 303.365 8.01683C302.828 8.36288 302.386 8.80506 301.945 9.26646C301.522 9.72786 301.119 10.2085 300.735 10.7083C300.025 11.6311 299.373 12.5924 298.739 13.5729C299.162 13.7074 299.661 13.7074 300.102 13.6882C300.14 13.6882 300.179 13.6882 300.217 13.6882C301.542 13.6113 302.828 13.1115 303.787 12.2079C305.227 10.8621 305.284 9.24724 305.918 7.61311C306.167 6.97869 306.474 6.36349 306.878 5.80596C307.146 5.45991 306.839 4.97929 306.417 5.05619Z" fill="#0E5850"/>
</svg>