<svg width="24" height="25" viewBox="0 0 24 25" fill="none" xmlns="http://www.w3.org/2000/svg">
<g id="Layer_1" clip-path="url(#clip0_424_1427)">
<path id="Vector" d="M22.315 2.185C20.63 0.5 17.915 0.5 12.48 0.5H11.52C6.09 0.5 3.375 0.5 1.685 2.185C0 3.875 0 6.59 0 12.02V12.98C0 18.41 0 21.125 1.685 22.815C3.37 24.5 6.085 24.5 11.52 24.5H12.48C17.91 24.5 20.625 24.5 22.315 22.815C24 21.13 24 18.415 24 12.98V12.02C24 6.59 24 3.875 22.315 2.185ZM17.22 17.79C16.61 15.89 15.09 14.42 13.08 14.22V17.79H12.77C7.3 17.79 4.18 14.04 4.05 7.8H6.79C6.88 12.38 8.9 14.32 10.5 14.72V7.8H13.08V11.75C14.66 11.58 16.32 9.78 16.88 7.8H19.46C19.03 10.24 17.23 12.04 15.95 12.78C17.23 13.38 19.28 14.95 20.06 17.79H17.22Z" fill="#0077FF"/>
</g>
<defs>
<clipPath id="clip0_424_1427">
<rect width="24" height="24" fill="white" transform="translate(0 0.5)"/>
</clipPath>
</defs>
</svg>
