<svg id="whatsapp" viewBox="0 0 21 21" fill="none" xmlns="http://www.w3.org/2000/svg">
<path d="M0.43457 20.2864L1.80005 15.3067C0.959755 13.8505 0.515735 12.1938 0.515735 10.5037C0.515735 5.20409 4.8318 0.892799 10.1266 0.892799C12.7 0.892799 15.1111 1.89542 16.9254 3.7097C18.7396 5.52397 19.7375 7.93982 19.7375 10.5085C19.7375 15.808 15.4214 20.1193 10.1266 20.1193H10.1218C8.51287 20.1193 6.93254 19.7135 5.52886 18.9496L0.43457 20.2864Z" fill="url(#paint0_linear_424_1606)"/>
<path d="M0.0859375 20.635L1.49916 15.4786C0.63022 13.9699 0.167102 12.2559 0.171877 10.5037C0.171877 5.01311 4.64072 0.549042 10.1313 0.549042C12.7954 0.549042 15.2972 1.58509 17.1735 3.4662C19.0546 5.34732 20.0907 7.84911 20.0859 10.5085C20.0859 15.999 15.6171 20.4631 10.1265 20.4631H10.1217C8.45547 20.4631 6.81785 20.0429 5.36166 19.2504L0.0859375 20.635ZM5.60992 17.4457L5.91071 17.6271C7.1807 18.3814 8.6369 18.7777 10.1217 18.7825H10.1265C14.6861 18.7825 18.4006 15.0728 18.4006 10.5085C18.4006 8.2979 17.5412 6.22104 15.9799 4.65503C14.4187 3.08903 12.3371 2.22963 10.1265 2.22963C5.56218 2.22963 1.84769 5.93935 1.84769 10.5037C1.84769 12.0649 2.28216 13.5879 3.11291 14.9057L3.30866 15.2208L2.47314 18.2716L5.60992 17.4457Z" fill="white"/>
<path d="M7.63919 6.33562C7.45299 5.92025 7.25723 5.9107 7.08058 5.90593C6.93735 5.90115 6.77024 5.90115 6.60314 5.90115C6.43604 5.90115 6.16867 5.96322 5.9395 6.21149C5.71033 6.45976 5.07056 7.06133 5.07056 8.28836C5.07056 9.5106 5.96337 10.6947 6.08751 10.8618C6.21164 11.0289 7.81107 13.6214 10.3367 14.6192C12.4375 15.45 12.8672 15.2829 13.3207 15.2399C13.7791 15.1969 14.7912 14.6383 15.0013 14.0558C15.2066 13.4734 15.2066 12.9768 15.1446 12.8718C15.0825 12.7667 14.9154 12.7047 14.6671 12.5805C14.4188 12.4564 13.1966 11.8548 12.9674 11.7689C12.7383 11.683 12.5711 11.6448 12.4088 11.893C12.2417 12.1413 11.7643 12.6999 11.621 12.867C11.4778 13.0341 11.3298 13.0532 11.0815 12.9291C10.8333 12.8049 10.0312 12.5424 9.08106 11.6925C8.34102 11.0336 7.83971 10.2172 7.69648 9.96895C7.55325 9.72068 7.68216 9.58699 7.80629 9.46286C7.9161 9.35305 8.05456 9.17162 8.17869 9.02839C8.30283 8.88516 8.3458 8.78012 8.42696 8.61302C8.50813 8.44591 8.46993 8.30268 8.40787 8.17854C8.3458 8.05441 7.85881 6.82739 7.63919 6.33562Z" fill="white"/>

<defs>
<linearGradient id="paint0_linear_424_1606" x1="2471.13" y1="4984.7" x2="2471.13" y2="0.614143" gradientUnits="userSpaceOnUse">
<stop stop-color="#20B038"/>
<stop offset="1" stop-color="#60D66A"/>
</linearGradient>
</defs>
</svg>
