<svg id="call-check" viewBox="0 0 25 25" fill="none" xmlns="http://www.w3.org/2000/svg">
<path d="M22.47 18.977C22.47 19.337 22.39 19.707 22.22 20.067C22.05 20.427 21.83 20.767 21.54 21.087C21.05 21.627 20.51 22.017 19.9 22.267C19.3 22.517 18.65 22.647 17.95 22.647C16.93 22.647 15.84 22.407 14.69 21.917C13.54 21.427 12.39 20.767 11.25 19.937C10.1 19.097 9.01 18.167 7.97 17.137C6.94 16.097 6.01 15.007 5.18 13.867C4.36 12.727 3.7 11.587 3.22 10.457C2.74 9.31697 2.5 8.22697 2.5 7.18697C2.5 6.50697 2.62 5.85697 2.86 5.25697C3.1 4.64697 3.48 4.08697 4.01 3.58697C4.65 2.95697 5.35 2.64697 6.09 2.64697C6.37 2.64697 6.65 2.70697 6.9 2.82697C7.16 2.94697 7.39 3.12697 7.57 3.38697L9.89 6.65697C10.07 6.90697 10.2 7.13697 10.29 7.35697C10.38 7.56697 10.43 7.77697 10.43 7.96697C10.43 8.20697 10.36 8.44697 10.22 8.67697C10.09 8.90697 9.9 9.14697 9.66 9.38697L8.9 10.177C8.79 10.287 8.74 10.417 8.74 10.577C8.74 10.657 8.75 10.727 8.77 10.807C8.8 10.887 8.83 10.947 8.85 11.007C9.03 11.337 9.34 11.767 9.78 12.287C10.23 12.807 10.71 13.337 11.23 13.867C11.77 14.397 12.29 14.887 12.82 15.337C13.34 15.777 13.77 16.077 14.11 16.257C14.16 16.277 14.22 16.307 14.29 16.337C14.37 16.367 14.45 16.377 14.54 16.377C14.71 16.377 14.84 16.317 14.95 16.207L15.71 15.457C15.96 15.207 16.2 15.017 16.43 14.897C16.66 14.757 16.89 14.687 17.14 14.687C17.33 14.687 17.53 14.727 17.75 14.817C17.97 14.907 18.2 15.037 18.45 15.207L21.76 17.557C22.02 17.737 22.2 17.947 22.31 18.197C22.41 18.447 22.47 18.697 22.47 18.977Z" stroke-miterlimit="10"/>
<path d="M15.5 6.61694L17.5 8.61694L21.5 4.61694" stroke-linecap="round" stroke-linejoin="round"/>
</svg>
